<svg width="60" height="60" viewBox="0 0 60 60" fill="none" xmlns="http://www.w3.org/2000/svg">
<path d="M0 10C0 4.47715 4.47715 0 10 0H50C55.5228 0 60 4.47715 60 10V50C60 55.5228 55.5228 60 50 60H10C4.47715 60 0 55.5228 0 50V10Z" fill="url(#paint0_linear_1_3366)"/>
<path d="M34.7743 23.7933C34.6603 22.6437 34.171 21.7506 33.3064 21.114C32.4418 20.4774 31.2684 20.1591 29.7862 20.1591C28.7791 20.1591 27.9287 20.3017 27.2352 20.5867C26.5416 20.8622 26.0095 21.247 25.639 21.7411C25.2779 22.2352 25.0974 22.7957 25.0974 23.4228C25.0784 23.9454 25.1876 24.4014 25.4252 24.791C25.6722 25.1805 26.0095 25.5178 26.4371 25.8029C26.8646 26.0784 27.3587 26.3207 27.9192 26.5297C28.4798 26.7292 29.0784 26.9002 29.715 27.0428L32.3373 27.6698C33.6105 27.9549 34.7791 28.3349 35.8432 28.81C36.9074 29.285 37.829 29.8694 38.6081 30.5629C39.3872 31.2565 39.9905 32.0736 40.4181 33.0143C40.8551 33.9549 41.0784 35.0333 41.0879 36.2494C41.0784 38.0356 40.6223 39.5843 39.7197 40.8955C38.8266 42.1971 37.5344 43.209 35.8432 43.9311C34.1615 44.6437 32.133 45 29.7577 45C27.4014 45 25.3492 44.639 23.6009 43.9169C21.8622 43.1948 20.5036 42.1259 19.5249 40.7102C18.5558 39.285 18.0475 37.5226 18 35.4228H23.9715C24.038 36.4014 24.3183 37.2185 24.8124 37.8741C25.3159 38.5202 25.9857 39.0095 26.8219 39.342C27.6675 39.6651 28.6223 39.8266 29.6865 39.8266C30.7316 39.8266 31.639 39.6746 32.4086 39.3705C33.1876 39.0665 33.791 38.6437 34.2185 38.1021C34.6461 37.5606 34.8599 36.9382 34.8599 36.2352C34.8599 35.5796 34.6651 35.0285 34.2755 34.5819C33.8955 34.1354 33.3349 33.7553 32.5938 33.4418C31.8622 33.1283 30.9644 32.8432 29.9002 32.5867L26.7221 31.7886C24.2613 31.19 22.3183 30.2542 20.8931 28.981C19.4679 27.7078 18.7601 25.9929 18.7696 23.8361C18.7601 22.0689 19.2304 20.5249 20.1805 19.2043C21.1401 17.8836 22.4561 16.8527 24.1283 16.1116C25.8005 15.3705 27.7007 15 29.829 15C31.9953 15 33.886 15.3705 35.5012 16.1116C37.1259 16.8527 38.3896 17.8836 39.2922 19.2043C40.1948 20.5249 40.6603 22.0546 40.6888 23.7933H34.7743Z" fill="white"/>
<defs>
<linearGradient id="paint0_linear_1_3366" x1="9.53442e-07" y1="29.9999" x2="60" y2="29.9999" gradientUnits="userSpaceOnUse">
<stop stop-color="#926EFB"/>
<stop offset="1" stop-color="#465BD7"/>
<stop offset="1" stop-color="#4A56AB"/>
</linearGradient>
</defs>
</svg>
